<?xml version="1.0" encoding="utf-8"?>
<!-- Generator: Adobe Illustrator 23.0.5, SVG Export Plug-In . SVG Version: 6.00 Build 0)  -->
<svg version="1.1" id="Layer_1" xmlns="http://www.w3.org/2000/svg" xmlns:xlink="http://www.w3.org/1999/xlink" x="0px" y="0px"
	 viewBox="0 0 173.2 45.9" style="enable-background:new 0 0 173.2 45.9;" xml:space="preserve">
<style type="text/css">
	.st0{fill-rule:evenodd;clip-rule:evenodd;fill:#F36C23;}
	.st1{fill-rule:evenodd;clip-rule:evenodd;fill:#5A5C5D;}
	.st2{fill:#5A5C5D;}
</style>
<g id="surface1">
	<path class="st0" d="M16.2,25c0.4-0.9,1-2,1.5-3l2.9-5.7c0.4-1,0.9-1.8,1.5-2.7v11.9l4.7-0.1c0-2.7,0.4-19.8,0-20.8
		c-0.4-0.2-1.3-0.1-2-0.1c-3,0-2.5-0.3-3.2,1c-1.1,2.2-6.5,12.9-6.8,13.2L8.9,7.7C8.6,7,8.3,6.5,8.1,5.9l-1-1.8
		C5.5,4.4,3.9,4.9,2.4,5.4c0,6.3-0.1,14,0,20.2h4.7V14.2C7.7,15.1,8.2,16,8.6,17c0.9,1.5,4,7.6,4.4,8.1L16.2,25z"/>
	<path class="st0" d="M68.3,21.1c-1.6,0.1-3.3,0-4.9,0c-1.7,0-3.1,0.2-4.2-0.6c-1.8-1.4-2.4-4.9-1.9-7.7c1-4.2,3.3-3.8,6.1-3.8
		c3,0,6.6,0.2,9.6,0l-1.3-4.5c-2.3-0.2-5.1,0-7.5,0c-2.4,0-4.9-0.3-6.9,0.6c-7.2,3.5-6.9,18.1,1,20.2c1.8,0.5,5.3,0.2,7.3,0.2
		c2.3,0,5.2,0.2,7.4,0c-0.2-1,0-8.8-0.1-10.6c-1.6,0.3-3.2,0.8-4.7,1.4L68.3,21.1z"/>
	<path class="st0" d="M30.6,9c3.6,0.2,8.4,0,12.2,0c1.6,0,2.5-0.2,3.2,1c0.6,1,0.6,2.3,0.1,3.4c-0.6,1.1-1.4,1.2-2.9,1.2h-7.9v-3.7
		c-1.6,0.3-3.1,0.8-4.7,1.4v13.4c1.6,0.2,3.1,0.2,4.7,0.1v-6.6c2.9-0.5,8.9,0.6,11.8-0.5c6.6-2.4,5.6-13.8-2.9-14
		c-2.4-0.1-10.4-0.1-12.3,0L30.6,9z"/>
	<path class="st1" d="M103.5,4.5c-2.8,0-5.6,0-8.4,0c-2.5,0-5.8-0.3-7.8,0.4c-5.1,1.8-5.4,8.2-2,10.9c2,1.5,3.8,1.5,6.9,1.5
		c1.5,0,2.8,0,4.2,0s2.4,0.4,2.5,1.7c0.1,1.5-1,2.1-2.2,2.1H84.4l-1.2,4.6c1.4,0.1,2.7,0.1,4.1,0.1c3,0,10,0.2,12.2-0.4
		c5-1.5,6-7.4,2.5-10.7c-2.4-2.3-7-1.8-10.8-1.8c-1.5,0-2.4,0.1-2.9-1.3c-0.2-0.5-0.1-1,0.2-1.5c0.3-0.5,0.9-0.8,1.6-0.9
		c0.9-0.2,10.7,0,12.4-0.1L103.5,4.5z"/>
	<path class="st1" d="M134,17.9c0.3-2.3-0.2-4.6-1.7-6.6c-2.6-3.5-8.5-3.5-11.5-1c-3.4,2.9-3.1,9.8-0.9,12.6
		c1.2,1.6,3.1,2.6,5.4,2.6c3.6,0.1,6.4-0.9,7.9-4.2C134,19.8,133.9,19.1,134,17.9 M123.4,16.6c0-1.7,0.6-3.2,1.7-3.8
		c3.1-1.5,4.6,2.6,3.8,6c-0.8,3.3-3.6,3.1-4.8,1.4C123.4,19.3,123.4,17.8,123.4,16.6L123.4,16.6z"/>
	<path class="st1" d="M166.8,20c-0.4,0.2-0.2,0.2-0.6,0.8c-0.9,1.4-4.6,1.9-4.7-2.3h10.1c0.3-5.3-2-9.1-6-9.7c-5-0.7-8.2,2-8.9,6.3
		c-1.7,10,6.9,12.2,11.4,9.6c1.8-1.1,2.9-2.8,3.2-4.6L166.8,20L166.8,20z M161.4,15.4c0.4-4.4,5.3-4.2,5.4,0H161.4z"/>
	<path class="st1" d="M143.1,25.1c0-2.4,0-4.9,0-7.3c0-2.3,0-4.9,2.1-5c1.4-0.1,1.9,0.3,2.1,1.4c0.3,1.5,0.2,9,0.2,10.9h4.9
		c0.1-2.3,0-4.8,0-7.2c0-2.3,0.2-5-0.5-6.6c-1.2-3-5.1-3-7-1.9c-1.2,0.6-1.4,1.3-1.8,1.7c0.1-0.6,0.1-1.2-0.1-1.8
		c-0.6-0.2-4-0.2-4.8-0.1v16H143.1z"/>
	<path class="st1" d="M112.9,12.4c0.8,0,1.9,0.2,2.4-0.1c0.2-1,0.2-2.1,0-3.2c-0.6-0.2-1.7-0.1-2.4-0.1V4.5H108V9h-2v3.3h2.1
		c0,2.7-0.2,8.4,0.4,10.7c0.6,1.9,2.1,2.4,4,2.4c3.6,0,2.8-0.3,2.8-3.8c-2.1,0.1-2.3-0.5-2.3-2.7L112.9,12.4z"/>
	<path class="st2" d="M6.9,38.8c0,0.3-0.1,0.6-0.2,1c-0.2,0.3-0.4,0.6-0.7,0.7c-0.4,0.2-0.8,0.3-1.2,0.3c-0.4,0-0.9-0.1-1.2-0.2
		c-0.4-0.2-0.7-0.4-0.9-0.7c-0.3-0.3-0.5-0.7-0.5-1.1h1c0,0.2,0.1,0.4,0.2,0.6c0.1,0.2,0.3,0.4,0.5,0.5c0.3,0.2,0.5,0.2,0.8,0.2
		c0.4,0,0.7-0.1,0.9-0.3c0.2-0.2,0.3-0.6,0.3-0.9c0-0.2-0.1-0.5-0.2-0.7c-0.1-0.2-0.3-0.4-0.5-0.5c-0.3-0.2-0.6-0.2-0.9-0.3
		c-0.4-0.2-0.8-0.3-1.1-0.5c-0.3-0.2-0.6-0.4-0.7-0.6c-0.2-0.3-0.3-0.7-0.3-1c0-0.3,0.1-0.7,0.3-1c0.2-0.2,0.4-0.5,0.7-0.7
		c0.4-0.2,0.8-0.2,1.2-0.2c0.6,0,1.2,0.2,1.7,0.6c0.4,0.4,0.7,0.9,0.7,1.4h-1c-0.1-0.3-0.2-0.6-0.4-0.8c-0.2-0.2-0.6-0.3-1-0.3
		c-0.3,0-0.7,0.1-0.9,0.3c-0.2,0.2-0.4,0.6-0.3,0.9c0,0.2,0.1,0.5,0.2,0.7c0.1,0.2,0.3,0.3,0.5,0.4c0.3,0.2,0.6,0.2,0.9,0.3
		c0.4,0.1,0.8,0.2,1.1,0.4c0.3,0.2,0.6,0.4,0.7,0.6C6.8,38,6.9,38.4,6.9,38.8"/>
	<path class="st2" d="M10.6,33.3h0.9v7.4h-0.9V33.3z"/>
	<path class="st2" d="M22.4,33.4v7.3h-0.9v-5.8l-2.1,5.8h-0.8l-2.1-5.8v5.8h-0.9v-7.3h1.1l2.4,6.2l2.3-6.2
		C21.4,33.4,22.4,33.4,22.4,33.4z"/>
	<path class="st2" d="M28.5,37c0.4,0,0.9-0.1,1.2-0.4c0.3-0.3,0.4-0.6,0.4-1c0-0.4-0.1-0.8-0.4-1.1c-0.3-0.2-0.8-0.4-1.2-0.4h-1.3
		v2.8L28.5,37z M27.3,37.8v3h-0.9v-7.4h2.1c0.7-0.1,1.4,0.2,1.8,0.6c0.4,0.5,0.6,1,0.6,1.6c0,0.6-0.2,1.2-0.6,1.6
		c-0.5,0.4-1.1,0.6-1.8,0.6L27.3,37.8z"/>
	<path class="st2" d="M35.4,40h2.4v0.7h-3.3v-7.4h0.9V40z"/>
	<path class="st2" d="M42.3,34.1v2.6h2.6v0.7h-2.6v2.6h2.9v0.8h-3.8v-7.4h3.8v0.8C45.2,34.1,42.3,34.1,42.3,34.1z"/>
	<path class="st2" d="M51.1,37.2c0-0.3,0.1-0.6,0.4-1c0.2-0.2,0.5-0.4,0.9-0.4c0.4,0,0.7,0.2,0.9,0.4c0.2,0.2,0.4,0.6,0.4,1
		c0,0.3-0.1,0.6-0.4,0.9c-0.2,0.2-0.5,0.4-0.9,0.4c-0.4,0-0.7-0.2-0.9-0.4C51.2,37.8,51.1,37.5,51.1,37.2"/>
	<path class="st2" d="M61.8,37c0.4,0,0.9-0.1,1.2-0.4c0.3-0.3,0.4-0.6,0.4-1c0-0.4-0.1-0.8-0.4-1.1c-0.3-0.2-0.8-0.4-1.2-0.4h-1.3
		v2.8L61.8,37z M60.5,37.8v3h-0.9v-7.4h2.2c0.7-0.1,1.4,0.2,1.8,0.6c0.4,0.5,0.6,1,0.6,1.6c0,0.6-0.2,1.2-0.6,1.6
		c-0.5,0.4-1.1,0.6-1.8,0.6L60.5,37.8z"/>
	<path class="st2" d="M68.6,33.3v4.5c-0.1,0.6,0.1,1.1,0.5,1.6c0.3,0.3,0.8,0.6,1.3,0.5c0.5,0,1-0.2,1.3-0.6c0.3-0.5,0.5-1,0.5-1.6
		v-4.5H73v4.5c0.1,0.8-0.2,1.6-0.7,2.3c-0.5,0.5-1.2,0.8-1.9,0.8c-0.7,0-1.5-0.3-1.9-0.8c-0.5-0.6-0.8-1.4-0.7-2.3v-4.5L68.6,33.3
		L68.6,33.3z"/>
	<path class="st2" d="M77.7,37H79c1,0,1.6-0.5,1.6-1.4s-0.5-1.4-1.6-1.4h-1.3V37z M80.6,40.7l-1.9-3h-1v3h-0.9v-7.4h2.2
		c0.7-0.1,1.3,0.2,1.8,0.6c0.4,0.5,0.6,1,0.6,1.6c0,0.5-0.1,1-0.5,1.4c-0.3,0.4-0.8,0.6-1.4,0.7l1.9,3L80.6,40.7z"/>
	<path class="st2" d="M86,34.1v2.6h2.6v0.7H86v2.6H89v0.8h-3.8v-7.4H89v0.8C89,34.1,86,34.1,86,34.1z"/>
	<path class="st2" d="M94.8,37.2c0-0.3,0.1-0.6,0.4-1c0.2-0.2,0.5-0.4,0.9-0.4c0.4,0,0.7,0.2,0.9,0.4c0.2,0.2,0.4,0.6,0.4,1
		c0,0.3-0.1,0.6-0.4,0.9c-0.3,0.3-0.6,0.4-0.9,0.4c-0.3,0-0.7-0.2-0.9-0.4C94.9,37.8,94.8,37.5,94.8,37.2"/>
	<path class="st2" d="M107.2,38.2l-1.3-3.8l-1.3,3.8H107.2z M107.5,39h-3l-0.6,1.7h-1l2.5-7.3h1l2.5,7.3h-0.9L107.5,39z"/>
	<path class="st2" d="M113.4,34.1v2.6h2.6v0.7h-2.6v2.6h2.9v0.8h-3.8v-7.4h3.8v0.8C116.3,34.1,113.4,34.1,113.4,34.1z"/>
	<path class="st2" d="M124.3,38.8c0,0.3-0.1,0.6-0.2,1c-0.2,0.3-0.4,0.6-0.7,0.7c-0.4,0.2-0.8,0.3-1.2,0.3s-0.9-0.1-1.3-0.2
		c-0.4-0.2-0.7-0.4-0.9-0.7c-0.2-0.3-0.4-0.7-0.4-1h1c0,0.2,0.1,0.4,0.2,0.6c0.1,0.2,0.3,0.4,0.5,0.5c0.2,0.2,0.5,0.2,0.8,0.2
		c0.4,0,0.7-0.1,0.9-0.3c0.2-0.2,0.3-0.6,0.3-0.9c0-0.2-0.1-0.5-0.2-0.7c-0.1-0.2-0.3-0.3-0.6-0.5c-0.3-0.2-0.6-0.2-0.9-0.3
		c-0.4-0.2-0.7-0.2-1.1-0.4c-0.3-0.2-0.6-0.4-0.7-0.6c-0.2-0.3-0.3-0.7-0.3-1.1c0-0.3,0.1-0.7,0.3-1c0.2-0.3,0.4-0.6,0.8-0.7
		c0.4-0.2,0.8-0.2,1.2-0.2c0.6,0,1.2,0.2,1.7,0.6c0.4,0.4,0.7,0.9,0.7,1.4h-1c-0.1-0.3-0.2-0.6-0.4-0.8c-0.2-0.2-0.6-0.3-0.9-0.3
		c-0.3,0-0.7,0.1-0.9,0.3c-0.2,0.2-0.4,0.6-0.3,0.9c0,0.2,0.1,0.5,0.2,0.7c0.1,0.2,0.3,0.3,0.5,0.4c0.3,0.2,0.6,0.2,0.9,0.3
		c0.4,0.2,0.7,0.2,1.1,0.5c0.3,0.2,0.6,0.4,0.7,0.6C124.3,38,124.4,38.4,124.3,38.8"/>
	<path class="st2" d="M132.4,33.3v0.8h-2v6.6h-0.9v-6.6h-2v-0.8H132.4z"/>
	<path class="st2" d="M141.1,33.3v7.4h-0.9v-3.4h-3.5v3.4h-0.9v-7.4h0.9v3.2h3.5v-3.2H141.1z"/>
	<path class="st2" d="M145.9,34.1v2.6h2.6v0.7h-2.6v2.6h2.9v0.8h-3.8v-7.4h3.8v0.8C148.9,34.1,145.9,34.1,145.9,34.1z"/>
	<path class="st2" d="M156.8,33.3v0.8h-2v6.6H154v-6.6h-2v-0.8H156.8z"/>
	<path class="st2" d="M160.2,33.3h0.9v7.4h-0.9V33.3z"/>
	<path class="st2" d="M168.1,33.2c0.8,0,1.6,0.2,2.1,0.6c0.6,0.5,1,1.1,1.2,1.8h-1c-0.2-0.5-0.5-0.9-0.9-1.2
		c-0.4-0.3-0.9-0.5-1.5-0.4c-0.4,0-0.9,0.2-1.2,0.3c-0.4,0.2-0.7,0.6-0.9,1c-0.2,0.5-0.3,1-0.3,1.5c0,0.5,0.1,1,0.3,1.5
		c0.2,0.4,0.5,0.7,0.9,1c0.3,0.2,0.8,0.3,1.2,0.3c0.5,0,1.1-0.2,1.5-0.4c0.4-0.3,0.7-0.7,0.9-1.2h1c-0.2,0.7-0.6,1.4-1.2,1.8
		s-1.3,0.7-2.1,0.6c-0.6,0-1.3-0.2-1.8-0.5c-0.5-0.3-0.9-0.8-1.2-1.4c-0.6-1.3-0.6-2.6,0-3.9c0.2-0.6,0.7-1,1.2-1.4
		C166.9,33.4,167.5,33.2,168.1,33.2"/>
</g>
</svg>
